<svg width="1440" height="2679" viewBox="0 0 1440 2679" fill="none" xmlns="http://www.w3.org/2000/svg">
<path fill-rule="evenodd" clip-rule="evenodd" d="M1440 770.181V96.271C1390.08 58.1024 1335.57 25.8635 1277.79 0H564.885C471.117 41.8785 386.276 100.326 315.909 173.075C24.0841 474.88 55.4326 937.103 386.003 1203.88L1105.79 1778.54C1155.63 1818.21 1185.22 1873.23 1189.62 1933.36C1193.85 1993.5 1172.18 2051.56 1128.33 2096.83C1081.31 2145.45 1013.15 2173.27 941.65 2173.27C881.241 2173.27 823.123 2153.44 777.86 2117.29L57.8981 1542.48C38.9838 1527.54 19.3204 1513.47 -1 1500.28V2169.43L413.477 2500.35C551.2 2609.27 728.022 2672.6 912.059 2679H974.231C1144.12 2672.94 1307.59 2617.58 1440 2523.52V1370.78L757.433 825.945C707.589 786.283 678.004 731.264 673.602 670.966C669.375 610.827 691.035 552.773 734.889 507.668C781.913 459.046 850.068 431.057 921.572 431.057C981.981 431.057 1040.1 450.889 1085.36 487.036L1440 770.181Z" fill="#ECF8FD"/>
</svg>
