<svg width="45" height="45" viewBox="0 0 45 45" fill="none" xmlns="http://www.w3.org/2000/svg">
<path d="M42.5 11.82V39.82C42.5 40.2179 42.342 40.5994 42.0607 40.8807C41.7794 41.162 41.3978 41.32 41 41.32C40.6022 41.32 40.2206 41.162 39.9393 40.8807C39.658 40.5994 39.5 40.2179 39.5 39.82V12.82L23 5.46005L6.5 12.8001V39.8C6.5 40.1979 6.34196 40.5794 6.06066 40.8607C5.77936 41.142 5.39782 41.3 5 41.3C4.60218 41.3 4.22064 41.142 3.93934 40.8607C3.65804 40.5794 3.5 40.1979 3.5 39.8V11.8001C3.50007 11.5101 3.58417 11.2264 3.74212 10.9833C3.90008 10.7401 4.12511 10.548 4.39 10.43L22.39 2.43005C22.582 2.34458 22.7898 2.30042 23 2.30042C23.2102 2.30042 23.418 2.34458 23.61 2.43005L41.61 10.43C41.878 10.5493 42.1052 10.7446 42.2634 10.9916C42.4216 11.2387 42.5038 11.5267 42.5 11.82ZM32.5 28C32.1022 28 31.7206 28.1581 31.4393 28.4394C31.158 28.7207 31 29.1022 31 29.5C31.0038 31.1181 30.5447 32.7035 29.6767 34.069C28.8087 35.4346 27.5682 36.5233 26.1016 37.2067C24.6349 37.8901 23.0034 38.1396 21.3995 37.9258C19.7956 37.712 18.2864 37.0438 17.05 36H19.5C19.8978 36 20.2794 35.842 20.5607 35.5607C20.842 35.2794 21 34.8979 21 34.5C21 34.1022 20.842 33.7207 20.5607 33.4394C20.2794 33.1581 19.8978 33 19.5 33H13.5C13.1022 33 12.7206 33.1581 12.4393 33.4394C12.158 33.7207 12 34.1022 12 34.5V40.5C12 40.8979 12.158 41.2794 12.4393 41.5607C12.7206 41.842 13.1022 42 13.5 42C13.8978 42 14.2794 41.842 14.5607 41.5607C14.842 41.2794 15 40.8979 15 40.5V38.18C16.662 39.6265 18.7055 40.5637 20.8861 40.8795C23.0667 41.1953 25.2921 40.8763 27.2962 39.9608C29.3003 39.0452 30.9983 37.5718 32.1871 35.7167C33.376 33.8616 34.0054 31.7034 34 29.5C34 29.1022 33.842 28.7207 33.5607 28.4394C33.2794 28.1581 32.8978 28 32.5 28ZM14 29.5C13.9962 27.882 14.4553 26.2966 15.3233 24.9311C16.1913 23.5655 17.4318 22.4768 18.8984 21.7934C20.3651 21.11 21.9966 20.8605 23.6005 21.0743C25.2044 21.2881 26.7136 21.9563 27.95 23H25.5C25.1022 23 24.7206 23.1581 24.4393 23.4394C24.158 23.7207 24 24.1022 24 24.5C24 24.8979 24.158 25.2794 24.4393 25.5607C24.7206 25.842 25.1022 26 25.5 26H31.5C31.8978 26 32.2794 25.842 32.5607 25.5607C32.842 25.2794 33 24.8979 33 24.5V18.5C33 18.1022 32.842 17.7207 32.5607 17.4394C32.2794 17.1581 31.8978 17 31.5 17C31.1022 17 30.7206 17.1581 30.4393 17.4394C30.158 17.7207 30 18.1022 30 18.5V20.82C28.338 19.3736 26.2945 18.4364 24.1139 18.1206C21.9333 17.8048 19.7079 18.1238 17.7038 19.0393C15.6997 19.9549 14.0017 21.4283 12.8129 23.2834C11.624 25.1385 10.9946 27.2967 11 29.5C11 29.8979 11.158 30.2794 11.4393 30.5607C11.7206 30.842 12.1022 31 12.5 31C12.8978 31 13.2794 30.842 13.5607 30.5607C13.842 30.2794 14 29.8979 14 29.5Z" fill="#C1F0D0"/>
</svg>
