<svg width="45" height="45" viewBox="0 0 45 45" fill="none" xmlns="http://www.w3.org/2000/svg">
<path d="M41 6C41 5.20435 40.6839 4.44129 40.1213 3.87868C39.5587 3.31607 38.7956 3 38 3H7C6.20435 3 5.44129 3.31607 4.87868 3.87868C4.31607 4.44129 4 5.20435 4 6V37C4 37.7956 4.31607 38.5587 4.87868 39.1213C5.44129 39.6839 6.20435 40 7 40H13C13.2652 40 13.5196 39.8946 13.7071 39.7071C13.8946 39.5196 14 39.2652 14 39V38C14 37.7348 13.8946 37.4804 13.7071 37.2929C13.5196 37.1054 13.2652 37 13 37H7V12H38V14C38 14.2652 38.1054 14.5196 38.2929 14.7071C38.4804 14.8946 38.7348 15 39 15H40C40.2652 15 40.5196 14.8946 40.7071 14.7071C40.8946 14.5196 41 14.2652 41 14V6ZM11 9H7V6H11V9ZM14 9V6H38V9H14ZM41 21V24C41 24.2652 40.8946 24.5196 40.7071 24.7071C40.5196 24.8946 40.2652 25 40 25H39C38.7348 25 38.4804 24.8946 38.2929 24.7071C38.1054 24.5196 38 24.2652 38 24V22H35V19H39C39.5304 19 40.0391 19.2107 40.4142 19.5858C40.7893 19.9609 41 20.4696 41 21ZM40.13 31.67L27.5 25.81C27.2466 25.6916 26.9651 25.6465 26.6873 25.6797C26.4096 25.7129 26.1467 25.823 25.9282 25.9978C25.7098 26.1725 25.5446 26.4049 25.4513 26.6685C25.3579 26.9322 25.3402 27.2168 25.4 27.49L28.53 41.82C28.5929 42.1225 28.7477 42.3982 28.9732 42.6094C29.1988 42.8206 29.484 42.957 29.79 43H30C30.2736 43.0006 30.5421 42.9264 30.7765 42.7854C31.0109 42.6444 31.2023 42.442 31.33 42.2L34.4 36.4L40.01 34.4C40.293 34.3025 40.5404 34.1225 40.7202 33.8832C40.9001 33.6439 41.0043 33.3563 41.0193 33.0573C41.0344 32.7583 40.9597 32.4617 40.8047 32.2056C40.6498 31.9494 40.4218 31.7455 40.15 31.62L40.13 31.67ZM32.84 33.77C32.4839 33.8939 32.1876 34.1474 32.01 34.48L30.58 37.17L29 29.81L35.53 32.81L32.84 33.77ZM21 33H18V28H21V33ZM24 40V41C24 41.2652 23.8946 41.5196 23.7071 41.7071C23.5196 41.8946 23.2652 42 23 42H20C19.4696 42 18.9609 41.7893 18.5858 41.4142C18.2107 41.0391 18 40.5304 18 40V36H21V39H23C23.2652 39 23.5196 39.1054 23.7071 39.2929C23.8946 39.4804 24 39.7348 24 40ZM32 22H27V19H32V22ZM20 19H24V22H21V25H18V21C18 20.4696 18.2107 19.9609 18.5858 19.5858C18.9609 19.2107 19.4696 19 20 19Z" fill="#C1F0D0"/>
</svg>
