<svg width="45" height="45" viewBox="0 0 45 45" fill="none" xmlns="http://www.w3.org/2000/svg">
<path d="M12.5 21C13.7856 21 15.0423 20.6188 16.1112 19.9046C17.1801 19.1903 18.0132 18.1752 18.5052 16.9874C18.9972 15.7997 19.1259 14.4928 18.8751 13.2319C18.6243 11.971 18.0052 10.8129 17.0962 9.90381C16.1872 8.99477 15.029 8.3757 13.7681 8.1249C12.5072 7.8741 11.2003 8.00282 10.0126 8.49479C8.82484 8.98676 7.80968 9.81988 7.09545 10.8888C6.38122 11.9577 6 13.2144 6 14.5C6 16.2239 6.68482 17.8772 7.90381 19.0962C9.12279 20.3152 10.7761 21 12.5 21ZM12.5 11C13.1922 11 13.8689 11.2053 14.4445 11.5899C15.0201 11.9744 15.4687 12.5211 15.7336 13.1606C15.9985 13.8002 16.0678 14.5039 15.9327 15.1828C15.7977 15.8618 15.4644 16.4854 14.9749 16.9749C14.4854 17.4644 13.8618 17.7977 13.1828 17.9328C12.5039 18.0678 11.8001 17.9985 11.1606 17.7336C10.5211 17.4687 9.97444 17.0201 9.58986 16.4445C9.20527 15.8689 9 15.1922 9 14.5C9 13.5717 9.36875 12.6815 10.0251 12.0251C10.6815 11.3688 11.5717 11 12.5 11ZM30 21C31.5823 21 33.129 20.5308 34.4446 19.6518C35.7602 18.7727 36.7855 17.5233 37.391 16.0615C37.9965 14.5997 38.155 12.9911 37.8463 11.4393C37.5376 9.88743 36.7757 8.46197 35.6569 7.34315C34.538 6.22433 33.1126 5.4624 31.5607 5.15372C30.0089 4.84504 28.4003 5.00347 26.9385 5.60897C25.4767 6.21447 24.2273 7.23985 23.3482 8.55544C22.4692 9.87103 22 11.4178 22 13C22 15.1217 22.8429 17.1566 24.3431 18.6569C25.8434 20.1571 27.8783 21 30 21ZM30 8C30.9889 8 31.9556 8.29325 32.7779 8.84266C33.6001 9.39206 34.241 10.173 34.6194 11.0866C34.9978 12.0002 35.0969 13.0056 34.9039 13.9755C34.711 14.9454 34.2348 15.8363 33.5355 16.5355C32.8363 17.2348 31.9454 17.711 30.9755 17.9039C30.0055 18.0969 29.0002 17.9978 28.0866 17.6194C27.173 17.241 26.3921 16.6001 25.8427 15.7779C25.2932 14.9556 25 13.9889 25 13C25 11.6739 25.5268 10.4022 26.4645 9.46447C27.4021 8.52679 28.6739 8 30 8ZM43 33.5V37.5C43 37.8978 42.842 38.2794 42.5607 38.5607C42.2794 38.842 41.8978 39 41.5 39C41.1022 39 40.7206 38.842 40.4393 38.5607C40.158 38.2794 40 37.8978 40 37.5V33.5C40 29.73 37.48 27 34 27H26.5C24.7769 27.0026 23.1251 27.6883 21.9067 28.9067C20.6883 30.1251 20.0026 31.7769 20 33.5V37.5C20 37.8978 19.842 38.2794 19.5607 38.5607C19.2794 38.842 18.8978 39 18.5 39C18.1022 39 17.7206 38.842 17.4393 38.5607C17.158 38.2794 17 37.8978 17 37.5V33.5C17.0026 30.9813 18.0044 28.5664 19.7854 26.7854C21.5664 25.0044 23.9813 24.0027 26.5 24H34C39.13 24 43 28.08 43 33.5ZM16 25.5C16 25.8978 15.842 26.2794 15.5607 26.5607C15.2794 26.842 14.8978 27 14.5 27H10.5C9.04212 27.0026 7.64471 27.583 6.61383 28.6138C5.58295 29.6447 5.00264 31.0421 5 32.5V36C5 36.3978 4.84196 36.7794 4.56066 37.0607C4.27936 37.342 3.89782 37.5 3.5 37.5C3.10218 37.5 2.72064 37.342 2.43934 37.0607C2.15804 36.7794 2 36.3978 2 36V32.5C2.00265 30.2465 2.89903 28.086 4.49252 26.4925C6.086 24.899 8.24647 24.0027 10.5 24H14.5C14.8978 24 15.2794 24.158 15.5607 24.4393C15.842 24.7206 16 25.1022 16 25.5Z" fill="#C1F0D0"/>
</svg>
